<svg xmlns="http://www.w3.org/2000/svg" viewBox="0 0 36.54 45.83"><defs><style>.cls-1,.cls-2{fill:none;stroke:#b1b1b1;stroke-miterlimit:10;}.cls-1{stroke-width:2px;}.cls-2{stroke-width:3px;}</style></defs><title>Asset 5</title><g id="Layer_2" data-name="Layer 2"><g id="Layer_1-2" data-name="Layer 1"><path class="cls-1" d="M15.33,35.84c.46-2.91,3.07-6.19,3.32-6.16s1.75,3.75,1.29,6.65-1.68,4-3,3.87S14.87,38.74,15.33,35.84Z"/><path class="cls-2" d="M19.87,21.13c-5.68,6-16.49,9-17,8.46s2.37-11.89,8-17.86S21,5.38,23.44,8,25.54,15.16,19.87,21.13Z"/><path class="cls-2" d="M34,15.73c2,5.14.66,12.53.2,12.68s-6.48-4.86-8.45-10-.93-7.89,1.35-8.63S32,10.59,34,15.73Z"/><path class="cls-1" d="M31.58,39.44A9.35,9.35,0,0,1,28,43.72a10.46,10.46,0,0,1,0-5.74c.81-2.27,1.94-2.89,2.91-2.49S32.39,37.17,31.58,39.44Z"/><path class="cls-1" d="M6.11,42.61A9.39,9.39,0,0,1,1,44.81a10.36,10.36,0,0,1,2.64-5.09c1.75-1.66,3-1.7,3.71-.91S7.87,41,6.11,42.61Z"/><rect class="cls-1" x="23.36" y="1" width="6.6" height="6.6" rx="3"/></g></g></svg>